<svg height="511pt" viewBox="-16 1 511 511.999" width="511pt" xmlns="http://www.w3.org/2000/svg"><path d="m424.996094 386.261719-39.105469-95.40625-8.117187 2.175781-8.261719-18.03125-6.644531-27.082031-14.570313 3.578125 4.535156 18.476562h-35.195312l111.59375-111.589844 51.0625-158.382812-56.835938 16.472656-11.726562 20.316406-19.507813-11.261718-50.484375 14.632812 28.769531 46.460938v46.140625l-92.574218 92.570312h-2.046875c8.699219-8.933593 14.066406-21.128906 14.066406-34.554687 0-13.425782-5.367187-25.621094-14.066406-34.554688h9.34375l25.449219 19.957032 9.257812-11.800782-29.527344-23.15625h-100.019531l-29.53125 23.15625 9.257813 11.804688 25.453124-19.960938h9.339844c-8.703125 8.933594-14.070312 21.128906-14.070312 34.554688 0 13.425781 5.367187 25.621094 14.070312 34.554687h-2.050781l-92.570313-92.570312v-46.140625l28.765626-46.460938-50.484376-14.632812-19.503906 11.261718-11.730468-20.316406-56.835938-16.472656 51.0625 158.382812 111.59375 111.589844h-35.1875l4.53125-18.46875-14.566406-3.578125-6.644532 27.070313-8.261718 18.035156-8.125-2.175781-39.105469 95.40625 5.121094 1.375-37.089844 90.496093 83.835937 22.460938 6.765626-25.25 33.457031 7.960938 3.476562-14.59375-33.046875-7.863282c.804688-3.007812 28.402344-106 32.671875-121.941406l89.410157 14.523438 89.410156-14.523438c6.945312 25.921875 26.214844 97.835938 32.671875 121.941406l-35.527344 8.453125 3.472656 14.597657 35.941407-8.554688 6.765624 25.25 83.832032-22.460938-37.089844-90.5zm-41.257813 95.957031-21.226562-79.214844 42.753906-11.457031 31.355469 76.503906zm-177.898437-291.441406c0-19.050782 15.503906-34.554688 34.558594-34.554688 19.050781 0 34.554687 15.503906 34.554687 34.554688 0 19.054687-15.503906 34.554687-34.554687 34.554687-19.054688 0-34.558594-15.5-34.558594-34.554687zm-141.109375-40.445313-41.289063-128.0625 23.921875 6.933594 16.210938 28.074219 26.960937-15.5625 25.363282 7.351562-20.613282 33.285156v56.625l101.363282 101.359376h87.5l101.359374-101.359376v-56.625l-20.609374-33.285156 25.363281-7.351562 26.960937 15.566406 16.207032-28.078125 23.921874-6.933594-41.289062 128.0625-119.636719 119.640625h-112.054687zm-20.558594 317.71875 31.355469-76.5 42.753906 11.453125-21.226562 79.21875zm91.933594-131.5625-13.941407 52.027344-1.710937-.460937-44.3125-11.871094 24.28125-59.242188 9.855469 15.351563zm104.292969 1.746094-121.113282-19.675781-6.683594-10.414063c4.6875-10.234375 6.238282-13.609375 10.617188-23.167969h234.363281c9.050781 19.753907 2.371094 5.175782 10.613281 23.167969l-6.683593 10.414063c-13.878907 2.253906-107.234375 17.421875-121.113281 19.675781zm130.125-5.941406 9.851562-15.347657 24.277344 59.238282-46.023438 12.332031-13.9375-52.027344zm0 0"/><path d="m336.34375 382.859375-17.992188-7.4375-20.550781 20.550781h-26.351562l-31.046875-31.050781-31.050782 31.050781h-26.347656l-20.558594-20.5625-17.992187 7.441406v69.210938l59.933594 59.9375h72.023437l59.933594-59.9375zm-15.003906 62.992187-51.144532 51.148438h-59.59375l-51.148437-51.148438v-52.214843l17.332031 17.335937h38.777344l24.835938-24.835937 24.835937 24.835937h38.777344l17.328125-17.328125zm0 0"/><path d="m269.660156 428.539062-11.371094-9.785156-14.417968 16.757813h-6.949219l-14.40625-16.757813-11.375 9.78125 5.996094 6.976563h-21.402344v23.390625l19.308594 19.308594h50.714843l19.308594-19.308594v-23.390625h-21.410156zm.402344 21.976563v2.175781l-10.519531 10.519532h-38.289063l-10.519531-10.519532v-2.175781zm0 0"/><path d="m250.378906 247.476562h30.003906v15h-30.003906zm0 0"/><path d="m225.378906 247.476562h15v15h-15zm0 0"/><path d="m200.375 247.476562h15.003906v15h-15.003906zm0 0"/></svg>